<?xml version="1.0" encoding="utf-8"?>
<!-- Generator: Adobe Illustrator 26.1.0, SVG Export Plug-In . SVG Version: 6.00 Build 0)  -->
<svg version="1.1" id="Layer_1" xmlns="http://www.w3.org/2000/svg" xmlns:xlink="http://www.w3.org/1999/xlink" width="351" height="32"
	 viewBox="0 0 2511.81 330.84" style="enable-background:new 0 0 2511.81 330.84;" xml:space="preserve">
<style type="text/css">
	.st0{fill:#FFFFFF;}
	.st1{fill:#EF5323;}
</style>
<g>
	<path class="st0" d="M955.94,203.33h-11.66v17.83h-29.66v-17.83h-51.15v-27.16l34.82-71.64h32.99l-35.15,71.64h18.5v-20.99h29.66
		v20.99h11.66V203.33z"/>
	<path class="st0" d="M974.1,199.49l38.65-40.82c6.5-7,11.16-12.33,11.16-17.99c0-5.5-3.67-9.66-10.33-9.66
		c-7.33,0-12.5,4.83-15.66,12.16l-25.66-14.33c7.83-18.33,23.99-26.83,40.99-26.83c20.99,0,40.49,13.16,40.49,36.99
		c0,14.66-8,25.66-18.66,36.82l-15.83,16.49h36.49v28.82H974.1V199.49z"/>
</g>
<g>
	<path class="st0" d="M308.56,162.85c0-34.56,26.16-61.18,61.42-61.18c23.12,0,42.74,12.14,51.14,30.59l-12.61,7.24
		c-6.3-13.78-21.02-22.88-38.53-22.88c-25.92,0-46,20.32-46,46.24s20.08,46.24,46,46.24c17.75,0,31.99-9.34,39.47-22.88l12.84,7.47
		c-9.57,18.45-29.42,30.36-52.31,30.36C334.71,224.03,308.56,197.41,308.56,162.85z"/>
	<path class="st0" d="M437.45,162.85c0-34.56,27.32-61.18,61.42-61.18c34.1,0,61.42,26.62,61.42,61.18s-27.32,61.18-61.42,61.18
		C464.78,224.03,437.45,197.41,437.45,162.85z M544.87,162.85c0-25.92-20.08-46.24-46.01-46.24c-25.92,0-46,20.32-46,46.24
		s20.08,46.24,46,46.24C524.79,209.09,544.87,188.77,544.87,162.85z"/>
	<path class="st0" d="M701.33,57.76v163.47h-15.41v-22.88c-9.81,15.65-26.39,25.69-47.17,25.69c-32.93,0-60.25-26.62-60.25-61.18
		s27.32-61.18,60.25-61.18c20.78,0,37.36,10.04,47.17,25.69V57.76H701.33z M685.91,162.85c0-25.92-20.08-46.24-46.01-46.24
		c-25.92,0-46,20.32-46,46.24s20.08,46.24,46,46.24C665.83,209.09,685.91,188.77,685.91,162.85z"/>
	<path class="st0" d="M841.2,163.32c0,2.34-0.23,4.91-0.47,7.24H738.21c3.27,23.82,21.72,38.53,46.47,38.53
		c18.45,0,31.29-8.64,37.6-19.85l13.54,7.94c-9.81,15.88-27.79,26.86-51.38,26.86c-36.9,0-62.12-25.92-62.12-61.18
		c0-34.33,24.76-61.18,60.95-61.18C819.01,101.67,841.2,131.32,841.2,163.32z M738.21,155.61h87.11c-3.27-25.69-21.95-39-42.03-39
		C758.76,116.61,741.25,132.73,738.21,155.61z"/>
</g>
<path class="st1" d="M149.4,246.44c16.02,0,31.53,2.22,46.24,6.38c-10.25,5.94-46.31,26.8-46.31,26.8s-33.42-19.29-46.31-26.75
	C117.77,248.68,133.33,246.44,149.4,246.44z M93.99,80.42c0.25-0.93,0.5-1.86,0.73-2.8c-10.02,5.78-46.49,26.84-46.49,26.84
	s0,41.97,0,53.62C59.27,147.38,69,135,77.06,121.05C84.6,107.98,90.22,94.32,93.99,80.42z M250.46,201.86
	c0.01,7.81,0.01,19.38,0.01,19.38s-11.1,6.42-16.74,9.67c-25.7-11.69-54.26-18.2-84.33-18.2c-30.09,0-58.65,6.52-84.36,18.21
	c-6.19-3.56-16.81-9.69-16.81-9.69s0-10.48,0-19.29c19.96-14.23,37.61-32.28,51.77-53.83c2.18-3.32,4.28-6.72,6.29-10.2
	c15.05-26.07,23.69-54.08,26.41-82.21c5.38-3.13,16.62-9.63,16.62-9.63s11.6,6.71,16.88,9.77c2.73,28.1,11.37,56.08,26.4,82.12
	C207.63,163.99,227.52,185.45,250.46,201.86z M181,181.1c-6.4-8.29-12.29-17.05-17.6-26.25c-0.06-0.11-0.13-0.22-0.19-0.33
	c-5.26-9.15-9.85-18.5-13.77-28.01c-3.97,9.64-8.62,19.09-13.94,28.29c-5.32,9.22-11.23,18-17.65,26.31
	c10.29-1.42,20.84-2.13,31.55-2.13C160.12,178.97,170.68,179.69,181,181.1z M204.21,77.76c0.54,2.15,1.13,4.3,1.76,6.44
	c3.73,12.63,8.99,25.01,15.86,36.9c8.01,13.87,17.67,26.18,28.63,36.84c0-15.3,0-53.47,0-53.47S213.98,83.4,204.21,77.76z"/>
<g>
	<path class="st0" d="M1366.41,82.2l-22.51,128.13h-12.08l2.75-15.56c-9.34,11.17-23.25,17.75-39.72,17.75
		c-25.44,0-43.93-22.7-39.17-49.79c5.49-30.93,29.84-46.13,52.35-46.13c15.38,0,29.84,7.32,36.43,21.6l9.88-56.01H1366.41z
		 M1339.5,166.95l0.37-2.93c3.48-23.43-12.81-35.69-30.93-35.69c-17.57,0-37.16,11.71-41.19,35.33
		c-3.48,20.32,9.34,37.16,30.02,37.16C1317.72,200.81,1335.29,186.54,1339.5,166.95z"/>
	<path class="st0" d="M1467.45,164.94c-0.18,0.92-0.92,4.03-1.46,5.67h-79.99c-0.73,18.49,11.35,30.2,30.57,30.2
		c13.91,0,25.44-6.04,32.4-15.74l9.52,6.22c-9.15,13.73-26.91,21.23-43.56,21.23c-28.37,0-45.21-21.78-40.27-49.79
		c4.76-26.91,27.82-46.13,54.36-46.13C1457.2,116.61,1472.57,139.31,1467.45,164.94z M1455.92,158.9
		c1.65-20.68-10.62-30.57-27.64-30.57c-19.4,0-34.96,12.08-40.45,30.57H1455.92z"/>
	<path class="st0" d="M1563.73,118.81l-49.97,91.52h-14.64l-17.76-91.52h12.26l14.46,78.34l42.1-78.34H1563.73z"/>
	<path class="st0" d="M1656.54,164.94c-0.18,0.92-0.92,4.03-1.46,5.67h-79.99c-0.73,18.49,11.35,30.2,30.57,30.2
		c13.91,0,25.44-6.04,32.4-15.74l9.52,6.22c-9.15,13.73-26.91,21.23-43.56,21.23c-28.37,0-45.21-21.78-40.27-49.79
		c4.76-26.91,27.82-46.13,54.36-46.13C1646.29,116.61,1661.66,139.31,1656.54,164.94z M1645.01,158.9
		c1.65-20.68-10.62-30.57-27.64-30.57c-19.4,0-34.96,12.08-40.45,30.57H1645.01z"/>
	<path class="st0" d="M1679.6,155.6l13.91-78.89h12.08l-13.91,78.89l-9.52,54.73h-12.08L1679.6,155.6z"/>
	<path class="st0" d="M1712.73,163.65c5.49-31.48,32.95-47.04,56.74-47.04c23.61,0,44.66,18.12,39.35,48.69
		c-5.49,32.03-31.67,47.23-55.46,47.23C1729.39,212.53,1707.24,194.96,1712.73,163.65z M1796.93,164.02
		c4.21-23.43-11.71-35.69-29.65-35.69c-17.94,0.18-38.07,12.26-42.47,36.24c-4.03,24.16,11.71,36.43,29.65,36.24
		C1772.59,200.81,1792.72,188.55,1796.93,164.02z"/>
	<path class="st0" d="M1927.63,166.4c-5.49,30.93-29.84,46.13-52.35,46.13c-15.38,0-29.84-7.32-36.43-21.6l-9.88,56.01h-12.08
		l22.51-128.13h12.08l-2.75,15.56c9.33-11.17,23.25-17.76,39.72-17.76C1913.9,116.61,1932.39,139.31,1927.63,166.4z M1885.53,128.33
		c-19.95,0-37.52,14.28-41.73,33.86l-0.37,2.93c-3.48,23.43,12.81,35.69,30.93,35.69c17.57,0,37.16-11.71,41.19-35.33
		C1919.03,145.17,1906.21,128.33,1885.53,128.33z"/>
	<path class="st0" d="M2038.01,164.94c-0.18,0.92-0.92,4.03-1.46,5.67h-79.99c-0.73,18.49,11.35,30.2,30.57,30.2
		c13.91,0,25.44-6.04,32.4-15.74l9.52,6.22c-9.15,13.73-26.91,21.23-43.56,21.23c-28.37,0-45.21-21.78-40.27-49.79
		c4.76-26.91,27.82-46.13,54.36-46.13C2027.76,116.61,2043.13,139.31,2038.01,164.94z M2026.47,158.9
		c1.65-20.68-10.62-30.57-27.64-30.57c-19.4,0-34.96,12.08-40.45,30.57H2026.47z"/>
	<path class="st0" d="M2108.85,117.34l-2.2,11.71c-14.64,0-30.2,7.69-34.23,30.39l-8.97,50.89h-12.08l16.11-91.52h12.08l-2.2,12.81
		C2086.51,120.09,2097.5,116.61,2108.85,117.34z"/>
	<path class="st0" d="M2106.47,190.75l10.8-5.67c1.83,9.15,10.25,15.74,23.06,15.74c12.08,0,21.42-5.12,23.06-14.46
		c4.03-22.33-51.44-11.53-45.39-45.4c2.38-13.36,15.74-24.34,33.5-24.34c15.19,0,25.81,6.77,30.93,18.67l-10.62,5.67
		c-2.75-9.15-11.9-12.63-20.68-12.63c-8.42,0-19.22,4.03-21.05,14.28c-4.03,21.97,51.25,11.53,45.4,45.4
		c-2.75,15.38-16.47,24.53-36.06,24.53C2120.74,212.53,2109.94,203.01,2106.47,190.75z"/>
</g>
<rect x="1155.84" y="46.08" class="st0" width="2" height="233.54"/>
<rect x="1953.21" y="648.75" style="fill:none;" width="2.26" height="0"/>
</svg>
